<mxfile host="app.diagrams.net" modified="2023-09-07T05:11:36.697Z" agent="Mozilla/5.0 (Macintosh; Intel Mac OS X 10_15_7) AppleWebKit/537.36 (KHTML, like Gecko) Chrome/116.0.0.0 Safari/537.36" etag="bGngPaeo6I3CK5WXyxb0" version="21.6.6" type="github" pages="2">
  <diagram name="第 1 页" id="ZSpEMxjX2LNw_D8kyEfc">
    <mxGraphModel dx="1088" dy="565" grid="1" gridSize="10" guides="1" tooltips="1" connect="1" arrows="1" fold="1" page="1" pageScale="1" pageWidth="827" pageHeight="1169" math="0" shadow="0">
      <root>
        <mxCell id="0" />
        <mxCell id="1" parent="0" />
        <mxCell id="OSjifvBMohGzfQW-HvaH-45" value="" style="whiteSpace=wrap;html=1;aspect=fixed;textOpacity=0;" parent="1" vertex="1">
          <mxGeometry x="275" y="445" width="190" height="190" as="geometry" />
        </mxCell>
        <mxCell id="OSjifvBMohGzfQW-HvaH-5" value="" style="verticalLabelPosition=bottom;verticalAlign=top;html=1;shape=mxgraph.basic.arc;startAngle=0.3;endAngle=0.1445233228859711;hachureGap=4;fontFamily=Architects Daughter;fontSource=https%3A%2F%2Ffonts.googleapis.com%2Fcss%3Ffamily%3DArchitects%2BDaughter;fontSize=14;rounded=0;" parent="1" vertex="1">
          <mxGeometry x="50" y="120" width="110" height="160" as="geometry" />
        </mxCell>
        <mxCell id="OSjifvBMohGzfQW-HvaH-15" style="edgeStyle=orthogonalEdgeStyle;orthogonalLoop=1;jettySize=auto;html=1;entryX=0;entryY=0.5;entryDx=0;entryDy=0;fontSize=14;" parent="1" source="OSjifvBMohGzfQW-HvaH-6" target="OSjifvBMohGzfQW-HvaH-27" edge="1">
          <mxGeometry relative="1" as="geometry">
            <mxPoint x="274" y="155" as="targetPoint" />
          </mxGeometry>
        </mxCell>
        <mxCell id="OSjifvBMohGzfQW-HvaH-6" value="开始" style="rounded=1;whiteSpace=wrap;html=1;fontSize=14;" parent="1" vertex="1">
          <mxGeometry x="110" y="170" width="110" height="60" as="geometry" />
        </mxCell>
        <mxCell id="OSjifvBMohGzfQW-HvaH-8" value="" style="endArrow=classic;html=1;entryX=0.417;entryY=0;entryDx=0;entryDy=0;entryPerimeter=0;exitX=0.855;exitY=0.144;exitDx=0;exitDy=0;exitPerimeter=0;fontSize=14;" parent="1" source="OSjifvBMohGzfQW-HvaH-5" target="OSjifvBMohGzfQW-HvaH-6" edge="1">
          <mxGeometry width="50" height="50" relative="1" as="geometry">
            <mxPoint x="150" y="150" as="sourcePoint" />
            <mxPoint x="170" y="130" as="targetPoint" />
          </mxGeometry>
        </mxCell>
        <mxCell id="OSjifvBMohGzfQW-HvaH-9" value="定时调度前一天数据" style="text;html=1;strokeColor=none;fillColor=none;align=center;verticalAlign=middle;whiteSpace=wrap;rounded=0;fontSize=14;" parent="1" vertex="1">
          <mxGeometry x="20" y="155" width="50" height="90" as="geometry" />
        </mxCell>
        <mxCell id="OSjifvBMohGzfQW-HvaH-17" value="" style="edgeStyle=orthogonalEdgeStyle;orthogonalLoop=1;jettySize=auto;html=1;fontSize=14;exitX=1;exitY=0.5;exitDx=0;exitDy=0;" parent="1" source="OSjifvBMohGzfQW-HvaH-27" target="OSjifvBMohGzfQW-HvaH-28" edge="1">
          <mxGeometry relative="1" as="geometry">
            <mxPoint x="414" y="155" as="sourcePoint" />
            <mxPoint x="510" y="200" as="targetPoint" />
          </mxGeometry>
        </mxCell>
        <mxCell id="OSjifvBMohGzfQW-HvaH-18" value="code_list" style="text;html=1;align=center;verticalAlign=middle;resizable=0;points=[];autosize=1;strokeColor=none;fillColor=none;fontSize=14;" parent="1" vertex="1">
          <mxGeometry x="420" y="170" width="80" height="30" as="geometry" />
        </mxCell>
        <mxCell id="OSjifvBMohGzfQW-HvaH-26" value="" style="edgeStyle=orthogonalEdgeStyle;orthogonalLoop=1;jettySize=auto;html=1;exitX=1;exitY=0.5;exitDx=0;exitDy=0;" parent="1" source="OSjifvBMohGzfQW-HvaH-43" target="OSjifvBMohGzfQW-HvaH-25" edge="1">
          <mxGeometry relative="1" as="geometry">
            <mxPoint x="420" y="365" as="sourcePoint" />
          </mxGeometry>
        </mxCell>
        <mxCell id="OSjifvBMohGzfQW-HvaH-50" value="" style="edgeStyle=orthogonalEdgeStyle;orthogonalLoop=1;jettySize=auto;html=1;" parent="1" source="OSjifvBMohGzfQW-HvaH-25" target="OSjifvBMohGzfQW-HvaH-29" edge="1">
          <mxGeometry relative="1" as="geometry" />
        </mxCell>
        <mxCell id="OSjifvBMohGzfQW-HvaH-25" value="获取当前时间之前的所有未结束的审批实例" style="whiteSpace=wrap;html=1;fontSize=14;rounded=1;" parent="1" vertex="1">
          <mxGeometry x="490" y="300" width="200" height="87.5" as="geometry" />
        </mxCell>
        <mxCell id="OSjifvBMohGzfQW-HvaH-27" value="调用钉钉接口获取当前所有表单模板 code" style="rounded=1;whiteSpace=wrap;html=1;fontSize=14;" parent="1" vertex="1">
          <mxGeometry x="280" y="152.5" width="140" height="95" as="geometry" />
        </mxCell>
        <mxCell id="OSjifvBMohGzfQW-HvaH-49" value="" style="edgeStyle=orthogonalEdgeStyle;orthogonalLoop=1;jettySize=auto;html=1;" parent="1" source="OSjifvBMohGzfQW-HvaH-28" target="OSjifvBMohGzfQW-HvaH-29" edge="1">
          <mxGeometry relative="1" as="geometry" />
        </mxCell>
        <mxCell id="OSjifvBMohGzfQW-HvaH-28" value="遍历表单code，调钉钉API获取该code下的所有审批实例ID" style="rounded=1;whiteSpace=wrap;html=1;fontSize=14;" parent="1" vertex="1">
          <mxGeometry x="510" y="150" width="180" height="100" as="geometry" />
        </mxCell>
        <mxCell id="OSjifvBMohGzfQW-HvaH-33" value="" style="edgeStyle=orthogonalEdgeStyle;orthogonalLoop=1;jettySize=auto;html=1;" parent="1" source="OSjifvBMohGzfQW-HvaH-29" target="OSjifvBMohGzfQW-HvaH-32" edge="1">
          <mxGeometry relative="1" as="geometry" />
        </mxCell>
        <mxCell id="OSjifvBMohGzfQW-HvaH-29" value="实例ID 列表" style="whiteSpace=wrap;html=1;fontSize=14;rounded=1;" parent="1" vertex="1">
          <mxGeometry x="750" y="230" width="100" height="76.25" as="geometry" />
        </mxCell>
        <mxCell id="OSjifvBMohGzfQW-HvaH-35" value="" style="edgeStyle=orthogonalEdgeStyle;orthogonalLoop=1;jettySize=auto;html=1;" parent="1" source="OSjifvBMohGzfQW-HvaH-32" target="OSjifvBMohGzfQW-HvaH-34" edge="1">
          <mxGeometry relative="1" as="geometry" />
        </mxCell>
        <mxCell id="OSjifvBMohGzfQW-HvaH-37" value="" style="edgeStyle=orthogonalEdgeStyle;orthogonalLoop=1;jettySize=auto;html=1;exitX=1;exitY=0.5;exitDx=0;exitDy=0;entryX=1;entryY=0.5;entryDx=0;entryDy=0;" parent="1" source="OSjifvBMohGzfQW-HvaH-32" target="OSjifvBMohGzfQW-HvaH-36" edge="1">
          <mxGeometry relative="1" as="geometry">
            <mxPoint x="1120" y="384.06000000000006" as="sourcePoint" />
            <mxPoint x="1060" y="558.75" as="targetPoint" />
          </mxGeometry>
        </mxCell>
        <mxCell id="OSjifvBMohGzfQW-HvaH-32" value="遍历实例ID列表，调用钉钉API获取实例当前详情" style="whiteSpace=wrap;html=1;fontSize=14;rounded=1;" parent="1" vertex="1">
          <mxGeometry x="920" y="212.18" width="160" height="111.88" as="geometry" />
        </mxCell>
        <mxCell id="OSjifvBMohGzfQW-HvaH-53" value="" style="edgeStyle=orthogonalEdgeStyle;orthogonalLoop=1;jettySize=auto;html=1;" parent="1" source="OSjifvBMohGzfQW-HvaH-34" target="OSjifvBMohGzfQW-HvaH-38" edge="1">
          <mxGeometry relative="1" as="geometry" />
        </mxCell>
        <mxCell id="OSjifvBMohGzfQW-HvaH-34" value="审批结束表单 list" style="whiteSpace=wrap;html=1;fontSize=14;rounded=1;" parent="1" vertex="1">
          <mxGeometry x="880" y="470" width="120" height="60" as="geometry" />
        </mxCell>
        <mxCell id="OSjifvBMohGzfQW-HvaH-54" value="" style="edgeStyle=orthogonalEdgeStyle;orthogonalLoop=1;jettySize=auto;html=1;" parent="1" source="OSjifvBMohGzfQW-HvaH-36" target="OSjifvBMohGzfQW-HvaH-38" edge="1">
          <mxGeometry relative="1" as="geometry" />
        </mxCell>
        <mxCell id="OSjifvBMohGzfQW-HvaH-36" value="审批未结束表单list" style="whiteSpace=wrap;html=1;fontSize=14;rounded=1;" parent="1" vertex="1">
          <mxGeometry x="880" y="560" width="120" height="60" as="geometry" />
        </mxCell>
        <mxCell id="OSjifvBMohGzfQW-HvaH-38" value="数据同步数仓" style="rounded=1;whiteSpace=wrap;html=1;fontSize=14;" parent="1" vertex="1">
          <mxGeometry x="650" y="510" width="120" height="60" as="geometry" />
        </mxCell>
        <mxCell id="OSjifvBMohGzfQW-HvaH-43" value="未结束表单存储表" style="rounded=1;whiteSpace=wrap;html=1;fontSize=14;" parent="1" vertex="1">
          <mxGeometry x="310" y="470" width="120" height="60" as="geometry" />
        </mxCell>
        <mxCell id="OSjifvBMohGzfQW-HvaH-44" value="已结束表单存储表" style="rounded=1;whiteSpace=wrap;html=1;fontSize=14;" parent="1" vertex="1">
          <mxGeometry x="310" y="560" width="120" height="60" as="geometry" />
        </mxCell>
        <mxCell id="OSjifvBMohGzfQW-HvaH-47" value="数仓" style="text;html=1;strokeColor=none;fillColor=none;align=center;verticalAlign=middle;whiteSpace=wrap;rounded=0;fontSize=14;" parent="1" vertex="1">
          <mxGeometry x="340" y="440" width="60" height="30" as="geometry" />
        </mxCell>
        <mxCell id="OSjifvBMohGzfQW-HvaH-48" value="" style="edgeStyle=orthogonalEdgeStyle;orthogonalLoop=1;jettySize=auto;html=1;exitX=0.5;exitY=1;exitDx=0;exitDy=0;entryX=0;entryY=0.5;entryDx=0;entryDy=0;" parent="1" source="OSjifvBMohGzfQW-HvaH-6" target="OSjifvBMohGzfQW-HvaH-43" edge="1">
          <mxGeometry relative="1" as="geometry">
            <mxPoint x="119.5" y="361" as="sourcePoint" />
            <mxPoint x="279.5" y="270" as="targetPoint" />
          </mxGeometry>
        </mxCell>
        <mxCell id="OSjifvBMohGzfQW-HvaH-51" value="" style="edgeStyle=orthogonalEdgeStyle;orthogonalLoop=1;jettySize=auto;html=1;exitX=0;exitY=0.5;exitDx=0;exitDy=0;entryX=1;entryY=0.5;entryDx=0;entryDy=0;" parent="1" source="OSjifvBMohGzfQW-HvaH-38" target="OSjifvBMohGzfQW-HvaH-43" edge="1">
          <mxGeometry relative="1" as="geometry">
            <mxPoint x="440" y="510" as="sourcePoint" />
            <mxPoint x="600" y="398" as="targetPoint" />
          </mxGeometry>
        </mxCell>
        <mxCell id="OSjifvBMohGzfQW-HvaH-52" value="" style="edgeStyle=orthogonalEdgeStyle;orthogonalLoop=1;jettySize=auto;html=1;exitX=0;exitY=0.5;exitDx=0;exitDy=0;" parent="1" source="OSjifvBMohGzfQW-HvaH-38" target="OSjifvBMohGzfQW-HvaH-44" edge="1">
          <mxGeometry relative="1" as="geometry">
            <mxPoint x="450" y="520" as="sourcePoint" />
            <mxPoint x="610" y="408" as="targetPoint" />
          </mxGeometry>
        </mxCell>
      </root>
    </mxGraphModel>
  </diagram>
  <diagram id="N6Qf_T4d1g0MsVYawxWN" name="第 2 页">
    <mxGraphModel dx="1785" dy="497" grid="1" gridSize="10" guides="1" tooltips="1" connect="1" arrows="1" fold="1" page="1" pageScale="1" pageWidth="827" pageHeight="1169" math="0" shadow="0">
      <root>
        <mxCell id="0" />
        <mxCell id="1" parent="0" />
        <mxCell id="N0nFYxH2VKQ8ynAPQaa9-21" value="" style="rounded=0;whiteSpace=wrap;html=1;" vertex="1" parent="1">
          <mxGeometry x="-50" y="110" width="320" height="110" as="geometry" />
        </mxCell>
        <mxCell id="N0nFYxH2VKQ8ynAPQaa9-5" value="" style="edgeStyle=orthogonalEdgeStyle;orthogonalLoop=1;jettySize=auto;html=1;" edge="1" parent="1" source="N0nFYxH2VKQ8ynAPQaa9-1" target="N0nFYxH2VKQ8ynAPQaa9-4">
          <mxGeometry relative="1" as="geometry" />
        </mxCell>
        <mxCell id="N0nFYxH2VKQ8ynAPQaa9-1" value="钉钉回调" style="rounded=1;whiteSpace=wrap;html=1;fontSize=14;" vertex="1" parent="1">
          <mxGeometry x="140" y="150" width="120" height="60" as="geometry" />
        </mxCell>
        <mxCell id="N0nFYxH2VKQ8ynAPQaa9-3" value="" style="edgeStyle=orthogonalEdgeStyle;orthogonalLoop=1;jettySize=auto;html=1;" edge="1" parent="1" source="N0nFYxH2VKQ8ynAPQaa9-2" target="N0nFYxH2VKQ8ynAPQaa9-1">
          <mxGeometry relative="1" as="geometry" />
        </mxCell>
        <mxCell id="N0nFYxH2VKQ8ynAPQaa9-2" value="审批实例状态变更：提交、审批完成" style="rounded=1;whiteSpace=wrap;html=1;fontSize=14;" vertex="1" parent="1">
          <mxGeometry x="-40" y="150" width="120" height="60" as="geometry" />
        </mxCell>
        <mxCell id="N0nFYxH2VKQ8ynAPQaa9-10" value="" style="edgeStyle=orthogonalEdgeStyle;orthogonalLoop=1;jettySize=auto;html=1;" edge="1" parent="1" source="N0nFYxH2VKQ8ynAPQaa9-4" target="N0nFYxH2VKQ8ynAPQaa9-9">
          <mxGeometry relative="1" as="geometry" />
        </mxCell>
        <mxCell id="N0nFYxH2VKQ8ynAPQaa9-4" value="应用的监听接口" style="whiteSpace=wrap;html=1;fontSize=14;rounded=1;" vertex="1" parent="1">
          <mxGeometry x="354" y="150" width="120" height="60" as="geometry" />
        </mxCell>
        <mxCell id="N0nFYxH2VKQ8ynAPQaa9-8" value="发消息" style="text;html=1;strokeColor=none;fillColor=none;align=center;verticalAlign=middle;whiteSpace=wrap;rounded=0;fontSize=14;" vertex="1" parent="1">
          <mxGeometry x="280" y="150" width="60" height="30" as="geometry" />
        </mxCell>
        <mxCell id="N0nFYxH2VKQ8ynAPQaa9-14" value="" style="edgeStyle=orthogonalEdgeStyle;orthogonalLoop=1;jettySize=auto;html=1;" edge="1" parent="1" source="N0nFYxH2VKQ8ynAPQaa9-9" target="N0nFYxH2VKQ8ynAPQaa9-13">
          <mxGeometry relative="1" as="geometry" />
        </mxCell>
        <mxCell id="N0nFYxH2VKQ8ynAPQaa9-9" value="获取到审批实例ID&lt;br&gt;调用钉钉API查询审批详情" style="whiteSpace=wrap;html=1;fontSize=14;rounded=1;" vertex="1" parent="1">
          <mxGeometry x="530" y="135" width="136" height="90" as="geometry" />
        </mxCell>
        <mxCell id="N0nFYxH2VKQ8ynAPQaa9-11" value="存储到holo" style="whiteSpace=wrap;html=1;fontSize=14;rounded=1;" vertex="1" parent="1">
          <mxGeometry x="538" y="410" width="120" height="60" as="geometry" />
        </mxCell>
        <mxCell id="N0nFYxH2VKQ8ynAPQaa9-16" value="" style="edgeStyle=orthogonalEdgeStyle;orthogonalLoop=1;jettySize=auto;html=1;" edge="1" parent="1" source="N0nFYxH2VKQ8ynAPQaa9-13" target="N0nFYxH2VKQ8ynAPQaa9-15">
          <mxGeometry relative="1" as="geometry" />
        </mxCell>
        <mxCell id="N0nFYxH2VKQ8ynAPQaa9-19" value="" style="edgeStyle=orthogonalEdgeStyle;orthogonalLoop=1;jettySize=auto;html=1;" edge="1" parent="1" source="N0nFYxH2VKQ8ynAPQaa9-13" target="N0nFYxH2VKQ8ynAPQaa9-11">
          <mxGeometry relative="1" as="geometry" />
        </mxCell>
        <mxCell id="N0nFYxH2VKQ8ynAPQaa9-13" value="检测未完成审批状态是否发生变动" style="rhombus;whiteSpace=wrap;html=1;fontSize=14;" vertex="1" parent="1">
          <mxGeometry x="509.5" y="260" width="177" height="100" as="geometry" />
        </mxCell>
        <mxCell id="N0nFYxH2VKQ8ynAPQaa9-15" value="丢弃" style="ellipse;whiteSpace=wrap;html=1;fontSize=14;" vertex="1" parent="1">
          <mxGeometry x="730" y="270" width="80" height="80" as="geometry" />
        </mxCell>
        <mxCell id="N0nFYxH2VKQ8ynAPQaa9-17" value="是" style="text;html=1;strokeColor=none;fillColor=none;align=center;verticalAlign=middle;whiteSpace=wrap;rounded=0;fontSize=14;" vertex="1" parent="1">
          <mxGeometry x="686.5" y="280" width="30" height="30" as="geometry" />
        </mxCell>
        <mxCell id="N0nFYxH2VKQ8ynAPQaa9-18" value="否" style="text;html=1;strokeColor=none;fillColor=none;align=center;verticalAlign=middle;whiteSpace=wrap;rounded=0;fontSize=14;" vertex="1" parent="1">
          <mxGeometry x="560" y="370" width="30" height="30" as="geometry" />
        </mxCell>
        <mxCell id="N0nFYxH2VKQ8ynAPQaa9-22" value="外部系统" style="text;html=1;strokeColor=none;fillColor=none;align=center;verticalAlign=middle;whiteSpace=wrap;rounded=0;fontSize=14;" vertex="1" parent="1">
          <mxGeometry x="70" y="110" width="60" height="30" as="geometry" />
        </mxCell>
      </root>
    </mxGraphModel>
  </diagram>
</mxfile>
